<svg width="883" height="779" viewBox="0 0 883 779" fill="none" xmlns="http://www.w3.org/2000/svg">
<g clip-path="url(#clip0_249_14888)">
<path d="M342.362 20.0599L345.832 14.6979C344.803 11.8557 343.614 9.07381 342.272 6.36544L340.029 8.17749L341.805 5.43215C340.112 2.09965 338.78 0 338.78 0C338.78 0 331.822 10.9651 329.497 22.5747L333.949 29.4554L329.02 25.4744C328.845 26.8268 328.755 28.1889 328.75 29.5526C328.75 43.3022 333.241 54.4484 338.78 54.4484C344.319 54.4484 348.81 43.3022 348.81 29.5526C348.706 25.1781 347.932 20.8454 346.515 16.7053L342.362 20.0599Z" fill="#E6E6E6"/>
<path d="M366.92 31.9802L373.165 30.642C374.447 27.9047 375.574 25.0973 376.54 22.2331L373.672 21.928L376.869 21.2428C378.029 17.6893 378.571 15.2627 378.571 15.2627C378.571 15.2627 365.898 18.096 356.045 24.6613L354.327 32.6749L353.657 26.3748C352.577 27.2069 351.55 28.1062 350.582 29.0673C340.86 38.7897 336.153 49.8466 340.07 53.7635C343.987 57.6805 355.044 52.9742 364.767 43.2518C367.786 40.0851 370.303 36.4742 372.229 32.545L366.92 31.9802Z" fill="#E6E6E6"/>
<path d="M369.201 85.1838C354.72 86.1101 338.941 85.1299 322.155 85.1838V46.752C336.946 49.0546 352.72 48.8181 369.201 46.752V85.1838Z" fill="#E6E6E6"/>
<path d="M472.802 115.151L475.064 111.654C474.393 109.801 473.618 107.987 472.743 106.221L471.28 107.402L472.439 105.612C471.335 103.439 470.466 102.069 470.466 102.069C467.678 106.624 465.635 111.593 464.412 116.791L467.315 121.278L464.101 118.682C463.987 119.564 463.928 120.452 463.925 121.342C463.925 130.308 466.853 137.577 470.466 137.577C474.078 137.577 477.007 130.308 477.007 121.342C476.939 118.489 476.434 115.663 475.51 112.964L472.802 115.151Z" fill="#E6E6E6"/>
<path d="M488.817 122.925L492.889 122.052C493.725 120.267 494.46 118.437 495.09 116.569L493.22 116.37L495.305 115.923C496.061 113.605 496.415 112.023 496.415 112.023C491.224 113.272 486.265 115.341 481.725 118.152L480.605 123.378L480.168 119.27C479.463 119.812 478.793 120.399 478.162 121.025C471.822 127.366 468.753 134.577 471.307 137.131C473.862 139.685 481.072 136.616 487.413 130.276C489.382 128.211 491.023 125.856 492.279 123.293L488.817 122.925Z" fill="#E6E6E6"/>
<path d="M490.305 157.622C480.861 158.226 470.571 157.586 459.624 157.622V132.559C469.801 133.984 480.127 133.984 490.305 132.559V157.622Z" fill="#E6E6E6"/>
<path d="M484.473 231.898C476.134 232.431 467.048 231.867 457.382 231.898V209.767C466.368 211.026 475.486 211.026 484.473 209.767V231.898Z" fill="#E6E6E6"/>
<path d="M532.056 82.4814H167.509V92.6643H532.056V82.4814Z" fill="#E6E6E6"/>
<path d="M532.056 154.78H167.509V164.963H532.056V154.78Z" fill="#E6E6E6"/>
<path d="M532.056 227.078H167.509V237.261H532.056V227.078Z" fill="#E6E6E6"/>
<path d="M470.959 217.914C482.206 217.914 491.324 208.796 491.324 197.548C491.324 186.3 482.206 177.182 470.959 177.182C459.711 177.182 450.593 186.3 450.593 197.548C450.593 208.796 459.711 217.914 470.959 217.914Z" fill="#E6E6E6"/>
<path d="M470.958 213.841C479.956 213.841 487.25 206.546 487.25 197.548C487.25 188.55 479.956 181.255 470.958 181.255C461.959 181.255 454.665 188.55 454.665 197.548C454.665 206.546 461.959 213.841 470.958 213.841Z" fill="white"/>
<path d="M470.958 201.621C473.207 201.621 475.031 199.797 475.031 197.548C475.031 195.298 473.207 193.475 470.958 193.475C468.708 193.475 466.885 195.298 466.885 197.548C466.885 199.797 468.708 201.621 470.958 201.621Z" fill="#E6E6E6"/>
<path d="M485.214 198.566V196.529H468.921V198.566H485.214Z" fill="#E6E6E6"/>
<path d="M469.94 199.584H471.977V183.292H469.94V199.584Z" fill="#E6E6E6"/>
<path d="M353.201 105.104H339.726V158.443H353.201V105.104Z" fill="#E6E6E6"/>
<path d="M353.201 113.526H339.726V119.702H353.201V113.526Z" fill="#CCCCCC"/>
<path d="M353.201 140.476H339.726V146.652H353.201V140.476Z" fill="#CCCCCC"/>
<path d="M332.426 105.104H318.951V158.443H332.426V105.104Z" fill="#E6E6E6"/>
<path d="M332.426 113.526H318.951V119.702H332.426V113.526Z" fill="#CCCCCC"/>
<path d="M332.426 140.476H318.951V146.652H332.426V140.476Z" fill="#CCCCCC"/>
<path d="M364.81 104.884L352.734 110.862L376.4 158.663L388.476 152.685L364.81 104.884Z" fill="#E6E6E6"/>
<path d="M368.548 112.431L356.472 118.41L359.212 123.945L371.288 117.966L368.548 112.431Z" fill="#CCCCCC"/>
<path d="M380.505 136.583L368.429 142.562L371.169 148.097L383.245 142.118L380.505 136.583Z" fill="#CCCCCC"/>
<path d="M233.042 177.403H219.567V230.742H233.042V177.403Z" fill="#E6E6E6"/>
<path d="M233.042 185.825H219.567V192.001H233.042V185.825Z" fill="#CCCCCC"/>
<path d="M233.042 212.775H219.567V218.951H233.042V212.775Z" fill="#CCCCCC"/>
<path d="M212.268 177.403H198.793V230.742H212.268V177.403Z" fill="#E6E6E6"/>
<path d="M212.268 185.825H198.793V192.001H212.268V185.825Z" fill="#CCCCCC"/>
<path d="M212.268 212.775H198.793V218.951H212.268V212.775Z" fill="#CCCCCC"/>
<path d="M244.653 177.182L232.577 183.161L256.243 230.962L268.319 224.983L244.653 177.182Z" fill="#E6E6E6"/>
<path d="M248.39 184.73L236.313 190.708L239.054 196.243L251.13 190.265L248.39 184.73Z" fill="#CCCCCC"/>
<path d="M260.348 208.882L248.271 214.86L251.012 220.395L263.088 214.416L260.348 208.882Z" fill="#CCCCCC"/>
<path d="M359.31 177.403H345.835V230.742H359.31V177.403Z" fill="#E6E6E6"/>
<path d="M359.31 185.825H345.835V192.001H359.31V185.825Z" fill="#CCCCCC"/>
<path d="M359.31 212.775H345.835V218.951H359.31V212.775Z" fill="#CCCCCC"/>
<path d="M338.537 177.403H325.062V230.742H338.537V177.403Z" fill="#E6E6E6"/>
<path d="M338.537 185.825H325.062V192.001H338.537V185.825Z" fill="#CCCCCC"/>
<path d="M338.537 212.775H325.062V218.951H338.537V212.775Z" fill="#CCCCCC"/>
<path d="M370.921 177.182L358.845 183.161L382.511 230.962L394.587 224.983L370.921 177.182Z" fill="#E6E6E6"/>
<path d="M374.657 184.73L362.581 190.708L365.321 196.243L377.397 190.265L374.657 184.73Z" fill="#CCCCCC"/>
<path d="M386.615 208.882L374.539 214.86L377.279 220.395L389.355 214.416L386.615 208.882Z" fill="#CCCCCC"/>
<path d="M503.543 32.6455H449.987V86.2014H503.543V32.6455Z" fill="#E6E6E6"/>
<path d="M492.832 43.3569H460.698V75.4905H492.832V43.3569Z" fill="#CCCCCC"/>
<path d="M470 54.1431L476.814 65.9441L483.627 77.7451H470H456.373L463.187 65.9441L470 54.1431Z" fill="#E6E6E6"/>
<path d="M481.839 56.3979L488.653 68.1989L495.466 80H481.839H468.212L475.026 68.1989L481.839 56.3979Z" fill="#E6E6E6"/>
<path d="M486.631 52.9408C488.81 52.9408 490.577 51.174 490.577 48.9946C490.577 46.8151 488.81 45.0483 486.631 45.0483C484.451 45.0483 482.685 46.8151 482.685 48.9946C482.685 51.174 484.451 52.9408 486.631 52.9408Z" fill="#E6E6E6"/>
<path d="M232.679 32.6455H179.123V86.2014H232.679V32.6455Z" fill="#E6E6E6"/>
<path d="M221.968 43.3569H189.834V75.4905H221.968V43.3569Z" fill="#CCCCCC"/>
<path d="M199.136 54.1431L205.949 65.9441L212.763 77.7451H199.136H185.509L192.322 65.9441L199.136 54.1431Z" fill="#E6E6E6"/>
<path d="M210.975 56.3979L217.788 68.1989L224.601 80H210.975H197.348L204.161 68.1989L210.975 56.3979Z" fill="#E6E6E6"/>
<path d="M215.767 52.9408C217.946 52.9408 219.713 51.174 219.713 48.9946C219.713 46.8151 217.946 45.0483 215.767 45.0483C213.587 45.0483 211.82 46.8151 211.82 48.9946C211.82 51.174 213.587 52.9408 215.767 52.9408Z" fill="#E6E6E6"/>
<path d="M71.4979 397.845L74.9674 392.483C73.9385 389.64 72.7501 386.859 71.4079 384.15L69.1644 385.962L70.9408 383.217C69.2479 379.884 67.9157 377.785 67.9157 377.785C67.9157 377.785 60.9575 388.75 58.6327 400.359L63.085 407.24L58.1561 403.259C57.9806 404.611 57.8903 405.974 57.8857 407.337C57.8857 421.087 62.3763 432.233 67.9157 432.233C73.4552 432.233 77.9457 421.087 77.9457 407.337C77.8418 402.963 77.068 398.63 75.6512 394.49L71.4979 397.845Z" fill="#950000"/>
<path d="M96.0555 409.765L102.3 408.427C103.583 405.689 104.709 402.882 105.675 400.018L102.808 399.713L106.005 399.028C107.164 395.474 107.707 393.047 107.707 393.047C107.707 393.047 95.0333 395.881 85.1803 402.446L83.4631 410.46L82.7929 404.159C81.7124 404.992 80.6854 405.891 79.7179 406.852C69.9955 416.574 65.2892 427.631 69.2062 431.548C73.1231 435.465 84.18 430.759 93.9025 421.036C96.9222 417.87 99.4387 414.259 101.364 410.33L96.0555 409.765Z" fill="#950000"/>
<path d="M98.3359 462.969C83.8547 463.895 68.076 462.915 51.29 462.969V424.537C66.0813 426.84 81.8548 426.603 98.3359 424.537V462.969Z" fill="#563D3D"/>
<path d="M696.509 475.031H500.998V728.585H696.509V475.031Z" fill="#E6E6E6"/>
<path d="M102.847 488.269H92.6641V728.585H102.847V488.269Z" fill="#E6E6E6"/>
<path d="M696.509 457.72H0V478.086H696.509V457.72Z" fill="#E6E6E6"/>
<path d="M107.938 478.086H87.5723V498.452H107.938V478.086Z" fill="#E6E6E6"/>
<path d="M614.155 489.796L613.009 494.379H584.497L582.779 489.796H510.162V536.638H687.344V489.796H614.155Z" fill="#563D3D"/>
<path d="M614.155 548.857L613.009 553.439H584.497L582.779 548.857H510.162V595.698H687.344V548.857H614.155Z" fill="#563D3D"/>
<path d="M614.155 607.918L613.009 612.5H584.497L582.779 607.918H510.162V654.759H687.344V607.918H614.155Z" fill="#563D3D"/>
<path d="M614.155 666.979L613.009 671.561H584.497L582.779 666.979H510.162V713.82H687.344V666.979H614.155Z" fill="#563D3D"/>
<path d="M377.785 454.665H317.706L319.742 428.19H375.748L377.785 454.665Z" fill="#E6E6E6"/>
<path d="M381.858 451.611H314.651V457.721H381.858V451.611Z" fill="#E6E6E6"/>
<path d="M462.812 257.627H233.188C231.567 257.627 230.013 258.271 228.868 259.416C227.722 260.562 227.078 262.116 227.078 263.737V403.751H468.921V263.737C468.921 262.116 468.278 260.562 467.132 259.416C465.986 258.271 464.432 257.627 462.812 257.627Z" fill="#563D3D"/>
<path d="M227.078 403.751V426.662C227.078 428.283 227.722 429.837 228.868 430.983C230.013 432.128 231.567 432.772 233.188 432.772H462.812C464.432 432.772 465.986 432.128 467.132 430.983C468.278 429.837 468.921 428.283 468.921 426.662V403.751H227.078Z" fill="#E6E6E6"/>
<path d="M457.211 270.355H239.298V392.55H457.211V270.355Z" fill="white"/>
<path d="M348.254 424.117C351.629 424.117 354.364 421.382 354.364 418.007C354.364 414.633 351.629 411.897 348.254 411.897C344.88 411.897 342.145 414.633 342.145 418.007C342.145 421.382 344.88 424.117 348.254 424.117Z" fill="#563D3D"/>
<path d="M865.036 727.057C842.782 728.481 818.533 726.975 792.737 727.057V667.997C815.468 671.535 839.708 671.172 865.036 667.997V727.057Z" fill="#563D3D"/>
<path d="M831.432 673.3H825.322L827.359 553.949H829.395L831.432 673.3Z" fill="#563D3D"/>
<path d="M858.926 674.107H852.816L854.853 554.755H856.889L858.926 674.107Z" fill="#563D3D"/>
<path d="M806.993 674.107H800.883L802.92 554.755H804.956L806.993 674.107Z" fill="#563D3D"/>
<path d="M836.523 477.577L846.386 462.334C843.461 454.255 840.083 446.347 836.267 438.648L829.89 443.799L834.939 435.995C830.127 426.521 826.34 420.553 826.34 420.553C826.34 420.553 806.56 451.723 799.952 484.725L812.608 504.285L798.597 492.968C798.098 496.813 797.841 500.685 797.828 504.561C797.828 543.647 810.593 575.332 826.34 575.332C842.087 575.332 854.852 543.647 854.852 504.561C854.852 492.444 852.111 479.767 848.33 468.041L836.523 477.577Z" fill="#E6E6E6"/>
<path d="M864.017 479.613L873.88 464.371C870.955 456.291 867.577 448.383 863.761 440.684L857.384 445.835L862.434 438.031C857.621 428.558 853.834 422.589 853.834 422.589C853.834 422.589 834.054 453.76 827.446 486.762L840.102 506.322L826.091 495.005C825.592 498.849 825.335 502.721 825.322 506.598C825.322 545.684 838.087 577.369 853.834 577.369C869.581 577.369 882.346 545.684 882.346 506.598C882.346 494.481 879.605 481.804 875.824 470.077L864.017 479.613Z" fill="#950000"/>
<path d="M812.085 479.613L821.947 464.371C819.022 456.291 815.644 448.383 811.829 440.684L805.451 445.835L810.501 438.031C805.688 428.558 801.902 422.589 801.902 422.589C801.902 422.589 782.121 453.76 775.513 486.762L788.169 506.322L774.158 495.005C773.659 498.849 773.403 502.721 773.39 506.598C773.39 545.684 786.155 577.369 801.902 577.369C817.648 577.369 830.414 545.684 830.414 506.598C830.414 494.481 827.673 481.804 823.891 470.077L812.085 479.613Z" fill="#950000"/>
<path d="M368.72 304.848H309.964V308.22H368.72V304.848Z" fill="#563D3D"/>
<path d="M400.696 317.151H309.964V320.524H400.696V317.151Z" fill="#950000"/>
<path d="M383.909 328.742H309.964V332.115H383.909V328.742Z" fill="#950000"/>
<path d="M353.132 340.29H309.964V343.663H353.132V340.29Z" fill="#563D3D"/>
<path d="M375.115 351.837H309.964V355.21H375.115V351.837Z" fill="#563D3D"/>
<path d="M290.378 303.649H283.184V310.844H290.378V303.649Z" fill="#563D3D"/>
<path d="M290.378 315.24H283.184V322.435H290.378V315.24Z" fill="#950000"/>
<path d="M290.378 326.832H283.184V334.026H290.378V326.832Z" fill="#950000"/>
<path d="M290.378 338.423H283.184V345.617H290.378V338.423Z" fill="#563D3D"/>
<path d="M290.378 350.014H283.184V357.209H290.378V350.014Z" fill="#563D3D"/>
<path d="M447.115 298.463H416.282C414.178 286.299 414.178 273.864 416.282 261.7H447.115C443.642 273.708 443.642 286.455 447.115 298.463Z" fill="#950000"/>
<path d="M222.764 372.144L210.079 369.052C205.239 369.058 200.458 367.988 196.081 365.92C191.705 363.851 187.844 360.835 184.776 357.091C181.709 353.346 179.512 348.967 178.345 344.269C177.178 339.571 177.07 334.673 178.029 329.928V329.928C178.014 318.608 182.498 307.745 190.493 299.73C198.488 291.715 209.339 287.204 220.66 287.19H220.66C231.98 287.176 242.843 291.659 250.858 299.654C258.873 307.649 263.384 318.5 263.398 329.821V329.821C270.59 354.849 248.065 378.312 222.764 372.144Z" fill="#412E2E"/>
<path d="M236.62 376.607C253.941 376.607 267.983 362.565 267.983 345.244C267.983 327.922 253.941 313.88 236.62 313.88C219.298 313.88 205.256 327.922 205.256 345.244C205.256 362.565 219.298 376.607 236.62 376.607Z" fill="#FFB8B8"/>
<path d="M216.165 361.607C216.165 361.607 206.62 394.334 201.165 397.062C195.711 399.789 244.802 403.88 244.802 403.88C244.802 403.88 243.438 372.516 246.165 369.789C248.893 367.061 216.165 361.607 216.165 361.607Z" fill="#FFB8B8"/>
<path d="M265.256 563.426C265.256 563.426 326.62 557.971 334.802 578.426C342.984 598.88 329.347 720.244 329.347 720.244H303.438V620.698C303.438 620.698 192.966 589.297 192.966 578.387C192.966 567.478 265.256 563.426 265.256 563.426Z" fill="#412E2E"/>
<path d="M325.256 714.79L338.892 720.244C338.892 720.244 355.256 718.88 348.438 731.153C346.486 734.716 343.756 737.792 340.451 740.153C337.145 742.514 333.35 744.099 329.347 744.79C329.347 744.79 303.438 754.335 302.074 744.79C300.711 735.244 308.892 716.153 308.892 716.153L325.256 714.79Z" fill="#412E2E"/>
<path d="M231.165 563.426C231.165 563.426 292.529 557.971 300.711 578.426C308.893 598.88 295.256 720.244 295.256 720.244H269.347V620.698C269.347 620.698 190.929 602.534 190.929 591.625C190.929 586.5 185.585 560.454 195.002 554.967C205.63 548.774 231.165 563.426 231.165 563.426Z" fill="#412E2E"/>
<path d="M291.165 714.79L304.802 720.244C304.802 720.244 321.165 718.88 314.347 731.153C312.395 734.716 309.665 737.792 306.36 740.153C303.055 742.514 299.259 744.099 295.256 744.79C295.256 744.79 269.347 754.335 267.983 744.79C266.62 735.244 274.802 716.153 274.802 716.153L291.165 714.79Z" fill="#412E2E"/>
<path d="M202.528 392.971L243.509 397.425C249.833 398.113 255.779 400.781 260.497 405.049C265.214 409.317 268.463 414.967 269.778 421.192L285.71 496.607C285.71 496.607 291.165 571.607 280.256 575.698C269.347 579.789 254.347 559.335 233.892 562.062C213.438 564.789 186.847 570.926 186.847 570.926C186.847 570.926 182.624 436.678 182.074 425.698C180.974 403.747 202.528 392.971 202.528 392.971Z" fill="#895757"/>
<path d="M299.6 567.322L316.424 577.23C316.424 577.23 346.607 572.899 345.665 583.508C344.722 594.116 311.776 592.066 311.776 592.066L291.501 579.573L299.6 567.322Z" fill="#FFB8B8"/>
<path d="M175.743 319.735C186.932 319.735 196.003 310.664 196.003 299.475C196.003 288.286 186.932 279.215 175.743 279.215C164.554 279.215 155.483 288.286 155.483 299.475C155.483 310.664 164.554 319.735 175.743 319.735Z" fill="#412E2E"/>
<path d="M194.436 288.584C194.434 285.587 193.766 282.628 192.482 279.92C191.197 277.213 189.328 274.824 187.008 272.926C184.689 271.029 181.977 269.67 179.068 268.947C176.16 268.225 173.127 268.157 170.189 268.748C172.782 267.523 175.604 266.862 178.471 266.81C181.338 266.758 184.183 267.314 186.818 268.444C189.453 269.573 191.819 271.249 193.758 273.361C195.697 275.473 197.165 277.973 198.066 280.695C198.967 283.416 199.279 286.299 198.983 289.15C198.687 292.002 197.788 294.758 196.347 297.237C194.906 299.715 192.954 301.859 190.622 303.527C188.29 305.195 185.631 306.349 182.82 306.912C186.296 305.275 189.234 302.682 191.291 299.436C193.348 296.191 194.439 292.427 194.436 288.584V288.584Z" fill="#412E2E"/>
<path d="M211.816 300.074L239.129 295.045L260.134 308.21C265.299 311.446 269.426 316.096 272.028 321.608C274.629 327.119 275.596 333.261 274.812 339.305L253.775 333.973L249.064 322.161L243.454 331.357L214.119 369.107L197.65 358.619L182.967 335.609L211.816 300.074Z" fill="#412E2E"/>
<path d="M234.309 404.571L247.945 397.752C247.945 397.752 276.581 401.843 282.036 420.934C287.491 440.025 312.036 572.298 312.036 572.298L288.854 583.207L256.127 502.753L234.309 404.571Z" fill="#895757"/>
<path opacity="0.2" d="M245.917 458.23L259.565 511.205L283.767 570.701L282.928 572.761L254.063 512.199L245.917 458.23Z" fill="black"/>
<path d="M144.084 750.379L139.271 748.721L185.896 610.231L192.636 612.553L144.084 750.379Z" fill="#563D3D"/>
<path d="M322.291 750.379L327.105 748.721L280.479 610.231L273.74 612.553L322.291 750.379Z" fill="#563D3D"/>
<path d="M223.77 778.981L228.861 778.999L230.443 617.107L223.315 617.082L223.77 778.981Z" fill="#563D3D"/>
<path d="M132.3 528.856L146.265 585.301C148.221 593.206 152.293 600.428 158.044 606.193C163.795 611.958 171.008 616.048 178.908 618.023H178.908C217.857 627.76 258.634 627.497 297.455 617.259L318.306 611.76C330.421 608.564 339.532 598.159 340.394 585.658C340.744 581.239 339.944 576.805 338.071 572.787C337.99 572.614 337.908 572.442 337.826 572.272C335.107 566.686 330.911 561.95 325.694 558.577C320.477 555.204 314.437 553.321 308.228 553.134L286.139 552.421L205.694 516.781C205.694 516.781 178.027 502.728 155.282 501.155C140.262 500.116 128.683 514.24 132.3 528.856Z" fill="#950000"/>
<path d="M622.683 351.309H543.257V459.248H622.683V351.309Z" fill="#E6E6E6"/>
<path d="M613.518 363.764H552.421V446.793H613.518V363.764Z" fill="white"/>
<path d="M606.07 385.492H576.468V388.865H606.07V385.492Z" fill="#563D3D"/>
<path d="M567.065 383.625H559.87V390.819H567.065V383.625Z" fill="#563D3D"/>
<path d="M606.07 399.748H576.468V403.121H606.07V399.748Z" fill="#563D3D"/>
<path d="M567.065 397.881H559.87V405.076H567.065V397.881Z" fill="#563D3D"/>
<path d="M606.07 414.004H576.468V417.377H606.07V414.004Z" fill="#563D3D"/>
<path d="M567.065 412.137H559.87V419.331H567.065V412.137Z" fill="#563D3D"/>
<path d="M586.025 357.419C586.025 355.732 584.657 354.364 582.97 354.364C581.283 354.364 579.915 355.732 579.915 357.419C579.915 359.106 581.283 360.474 582.97 360.474C584.657 360.474 586.025 359.106 586.025 357.419Z" fill="#563D3D"/>
</g>
<defs>
<clipPath id="clip0_249_14888">
<rect width="882.346" height="778.999" fill="white"/>
</clipPath>
</defs>
</svg>
